<?xml version="1.0" standalone="no"?>
<!DOCTYPE svg PUBLIC "-//W3C//DTD SVG 20010904//EN"
 "http://www.w3.org/TR/2001/REC-SVG-20010904/DTD/svg10.dtd">
<svg version="1.0" xmlns="http://www.w3.org/2000/svg"
 width="213.000000pt" height="248.000000pt" viewBox="0 0 213.000000 248.000000"
 preserveAspectRatio="xMidYMid meet">

<g transform="translate(0.000000,248.000000) scale(0.100000,-0.100000)"
fill="#000000" stroke="none">
<path d="M885 2233 c-146 -3 -548 -22 -635 -30 -163 -14 -6 -23 475 -29 336
-4 485 -2 475 5 -18 13 -10 21 32 31 l33 8 -30 3 c-18 1 -6 5 30 9 60 7 -167
9 -380 3z"/>
<path d="M1770 2210 c25 -7 24 -9 -20 -23 -24 -8 111 -7 155 2 l40 7 -66 12
c-36 7 -81 12 -100 11 -31 -1 -32 -2 -9 -9z"/>
<path d="M2025 2189 c-71 -21 -284 -31 -780 -36 -291 -3 -521 -9 -510 -13 17
-7 16 -8 -10 -13 -16 -3 265 -4 625 -3 418 1 624 -1 570 -7 -111 -11 -1289
-14 -1583 -4 l-228 8 11 -21 c6 -12 14 -53 16 -93 6 -87 12 -117 22 -116 32 5
40 -3 40 -41 1 -51 -18 -63 -19 -13 -2 30 -3 32 -6 10 -2 -15 -9 -25 -14 -22
-12 8 -11 2 4 -29 8 -14 17 -23 20 -19 4 3 7 -2 7 -13 0 -16 2 -17 10 -4 5 8
10 13 10 10 0 -3 4 -20 10 -38 8 -30 7 -32 -7 -20 -14 11 -15 10 -8 -12 l7
-25 -21 24 -21 24 0 -26 c0 -18 5 -27 16 -27 15 0 16 -10 10 -86 -5 -56 -4
-84 3 -80 5 4 12 -3 16 -14 4 -11 11 -17 17 -14 6 4 8 -1 6 -12 -2 -11 -10
-18 -16 -16 -15 3 -16 -24 -2 -33 6 -4 8 -29 4 -63 -5 -39 -3 -54 4 -47 6 6
12 21 15 35 2 14 5 -12 6 -58 1 -53 -3 -81 -9 -77 -11 7 -14 -8 -3 -19 4 -3
13 4 20 16 l13 23 -2 -25 c-2 -18 -9 -25 -24 -24 -18 0 -20 -2 -11 -17 6 -10
15 -15 19 -13 9 6 11 -27 2 -50 -3 -9 -10 -13 -15 -10 -16 9 -10 -25 8 -46 13
-14 19 -16 25 -7 5 7 8 3 8 -13 0 -28 -13 -52 -26 -50 -15 2 -17 -33 -2 -44
19 -15 42 -72 34 -85 -4 -6 -14 -7 -22 -4 -18 7 -15 -9 12 -76 8 -18 14 -45
14 -60 l-1 -26 -19 24 c-11 13 -20 18 -20 12 0 -6 9 -20 20 -31 11 -11 20 -33
20 -48 0 -16 9 -38 20 -50 22 -23 26 -42 10 -42 -6 0 -8 -12 -4 -27 4 -22 3
-25 -5 -13 -6 8 -11 10 -11 4 0 -5 4 -14 9 -20 5 -5 11 -18 14 -29 3 -11 5 -3
6 18 1 24 5 36 12 32 6 -4 7 -19 4 -35 -3 -16 -7 -42 -7 -59 -1 -19 -6 -31
-15 -31 -7 0 -13 -8 -13 -17 0 -9 3 -13 7 -10 3 4 12 -1 19 -10 11 -15 11 -14
7 10 -3 16 -1 27 6 27 6 0 11 -17 11 -40 0 -22 5 -40 10 -40 6 0 10 -15 9 -32
-1 -30 -2 -30 -8 -9 -4 14 -12 26 -19 29 -19 6 -14 -30 8 -58 17 -21 21 -23
29 -10 8 12 11 10 19 -9 8 -21 10 -22 24 -8 14 15 16 15 21 -3 3 -10 0 -21 -7
-24 -6 -3 0 -3 14 1 14 3 30 13 36 21 10 14 13 13 25 -6 8 -12 18 -22 22 -22
5 0 -1 15 -12 34 -20 32 -20 34 -3 49 16 15 19 15 29 -2 7 -10 9 -29 6 -41 -5
-17 -3 -21 7 -15 7 4 16 2 21 -6 5 -9 3 -16 -9 -21 -13 -5 -10 -7 10 -7 l27
-1 -25 47 c-14 27 -36 66 -48 88 -13 22 -36 65 -51 95 -14 30 -33 67 -41 82
-18 33 -18 43 2 62 10 11 12 21 6 32 -7 13 -10 10 -16 -17 l-7 -34 -15 28
c-13 23 -13 33 -3 62 10 27 10 38 1 47 -9 9 -12 4 -12 -22 0 -44 -21 -26 -22
19 -1 17 -4 31 -7 31 -4 0 -7 10 -8 23 l-1 22 10 -23 c6 -12 15 -22 20 -22 11
0 11 2 -11 59 -11 27 -17 52 -13 55 3 4 1 11 -6 15 -15 9 -28 71 -15 71 5 0 7
16 5 35 -2 19 -8 32 -13 30 -10 -7 -23 38 -16 57 2 7 11 -3 19 -22 8 -19 22
-41 31 -49 15 -12 16 -10 5 20 -6 19 -14 36 -18 39 -14 10 -30 50 -30 75 0 15
-4 24 -10 20 -11 -7 -12 -4 -15 38 -3 38 3 34 25 -17 10 -24 23 -47 29 -50 15
-10 14 1 -5 29 -9 14 -13 32 -9 45 4 14 2 20 -6 18 -7 -2 -18 13 -24 32 -6 19
-16 46 -22 60 -12 29 -5 70 8 48 5 -7 6 -21 3 -30 -3 -9 2 -20 9 -25 8 -4 25
-30 37 -56 12 -26 25 -46 27 -43 3 2 -7 28 -21 56 -14 28 -26 59 -26 68 0 9
-7 26 -15 36 -8 11 -15 34 -15 52 0 18 -4 34 -10 36 -5 2 -12 19 -15 38 -5 29
0 23 29 -34 19 -38 37 -78 40 -89 3 -12 8 -19 11 -16 6 7 -33 115 -52 144 -7
11 -13 32 -13 48 0 16 -7 35 -15 43 -8 9 -15 30 -14 47 l0 32 16 -35 c46 -100
53 -114 53 -105 0 6 -10 35 -21 65 -12 30 -23 71 -26 90 -4 33 -3 34 11 16 9
-11 16 -28 16 -38 0 -10 4 -18 9 -18 11 0 3 34 -16 70 -17 33 -16 59 2 66 8 4
12 10 9 15 -3 6 1 21 10 34 20 31 20 49 -1 66 -15 13 -15 12 -6 -5 11 -21 6
-56 -8 -56 -5 0 -14 11 -20 24 -9 18 -7 32 9 65 11 22 16 41 11 41 -6 0 -15
-14 -21 -30 -8 -25 -13 -28 -24 -19 -13 10 -14 5 -9 -32 6 -43 6 -44 -9 -18
-12 22 -13 32 -3 58 6 17 17 31 25 31 9 0 10 5 4 18 -6 9 -13 37 -17 62 -4 25
-13 66 -20 93 l-14 47 62 0 c34 0 179 -7 322 -15 143 -7 301 -15 350 -16 50
-2 95 -7 101 -11 7 -5 31 -4 54 1 23 5 142 10 264 10 242 0 366 5 438 16 l47
7 -6 -113 c-5 -109 -5 -113 12 -97 12 11 21 40 25 85 7 61 7 57 7 -42 0 -69
-5 -122 -14 -143 -7 -18 -11 -45 -8 -60 3 -15 2 -21 -1 -14 -3 6 -9 12 -14 12
-14 0 -17 -34 -4 -45 7 -5 15 -20 18 -31 5 -16 2 -23 -12 -26 -20 -6 -36 -55
-21 -64 5 -3 8 -17 8 -32 -2 -24 -2 -24 -6 -4 -2 12 -8 20 -13 17 -4 -3 -1
-26 7 -52 18 -58 28 -152 12 -114 -5 13 -10 35 -11 48 -3 28 -14 30 -21 3 -3
-11 -1 -20 4 -20 16 0 10 -44 -11 -85 -14 -28 -17 -41 -8 -46 8 -5 5 -24 -11
-68 -13 -35 -19 -66 -14 -74 5 -8 10 0 15 23 4 23 5 16 2 -19 -3 -30 -12 -67
-20 -82 -7 -15 -14 -37 -14 -49 0 -12 -4 -18 -10 -15 -5 3 -10 1 -10 -4 0 -14
13 -14 28 1 13 13 5 -22 -19 -77 -18 -44 -23 -89 -8 -80 9 6 10 -1 5 -26 -4
-19 -8 -48 -9 -65 -1 -21 -6 -30 -14 -27 -7 3 -13 -2 -13 -11 0 -9 5 -16 11
-16 16 0 7 -79 -13 -122 -21 -42 -23 -68 -7 -68 6 0 8 7 5 16 -5 12 18 74 27
74 2 0 4 -10 5 -22 2 -21 -11 -61 -43 -133 -8 -16 -16 -40 -20 -52 -3 -13 -10
-23 -15 -23 -4 0 -11 10 -15 23 -7 21 -7 21 -12 2 -7 -27 -23 -46 -34 -40 -4
3 -3 -8 3 -25 8 -24 7 -34 -2 -43 -10 -9 -11 -9 -6 0 3 6 3 18 0 27 -6 15 -8
15 -20 -1 -7 -10 -14 -14 -14 -8 0 5 -7 -1 -16 -13 -17 -25 -39 -30 -30 -7 3
8 0 15 -7 16 -7 0 -2 5 11 11 22 11 30 28 13 28 -17 0 -62 -43 -57 -55 3 -8
-4 -23 -15 -36 -10 -12 -19 -18 -19 -14 0 5 7 17 17 27 9 10 11 18 6 18 -6 0
-16 -7 -23 -15 -15 -18 -35 -20 -24 -3 4 6 3 8 -4 4 -6 -3 -14 -1 -17 4 -5 8
-13 6 -26 -6 -10 -9 -27 -14 -38 -11 -17 4 -19 2 -11 -13 6 -10 19 -18 29 -17
11 0 18 4 15 9 -2 4 5 12 16 18 12 6 20 7 20 1 0 -5 -6 -12 -12 -14 -7 -3 -3
-6 9 -6 25 -1 39 -16 23 -26 -6 -3 -25 -7 -43 -7 -18 0 -42 -10 -54 -21 -13
-11 -26 -17 -30 -14 -3 4 2 14 13 22 19 14 19 14 -1 15 -11 0 -34 -4 -51 -9
-17 -5 -37 -5 -44 -1 -8 5 -3 10 15 14 27 7 30 26 5 34 -9 3 -11 -1 -7 -12 4
-10 3 -15 -3 -11 -6 4 -20 3 -31 0 -15 -5 -18 -9 -9 -15 9 -5 9 -9 1 -14 -6
-4 -14 1 -18 11 -7 19 -32 42 -47 43 -5 0 -1 -9 9 -20 18 -20 18 -21 -3 -43
-24 -24 -46 -18 -66 18 -13 23 -37 44 -50 45 -5 0 -2 -8 7 -18 24 -26 21 -32
-15 -32 -24 0 -29 -3 -18 -9 8 -6 18 -7 22 -5 4 3 8 1 8 -4 0 -21 -30 -20 -45
1 -19 28 -19 43 1 51 9 4 14 9 11 13 -4 3 -13 0 -21 -6 -12 -10 -20 -9 -40 6
-14 10 -26 23 -26 29 0 6 -11 21 -25 34 -14 13 -25 29 -25 35 0 6 -12 22 -27
36 l-27 24 22 -29 c12 -16 22 -34 22 -41 0 -7 7 -15 15 -19 8 -3 21 -18 28
-33 6 -15 23 -38 37 -50 l25 -22 -26 -26 -27 -27 -18 27 c-33 47 -83 100 -84
88 0 -7 8 -17 19 -22 28 -16 34 -41 14 -65 -17 -19 -17 -20 0 -7 14 11 20 11
32 1 23 -19 18 -30 -15 -30 -16 0 -30 -4 -30 -10 0 -18 39 -11 91 16 48 24 52
24 69 9 17 -16 22 -16 50 -2 26 14 35 14 63 2 27 -11 36 -11 60 2 23 11 31 12
43 2 13 -10 22 -9 49 5 31 17 35 17 50 2 20 -20 20 -20 51 0 19 13 30 14 48 6
12 -5 29 -6 37 -2 24 13 92 6 97 -10 3 -11 1 -12 -5 -2 -7 9 -15 6 -33 -13
-17 -18 -27 -22 -40 -15 -10 5 -19 7 -22 5 -7 -7 -65 -15 -143 -20 -38 -2 -70
-4 -70 -5 0 -12 -202 -30 -336 -30 -239 0 -516 72 -507 131 3 17 -19 49 -33
49 -4 0 -7 -14 -7 -31 2 -59 112 -113 310 -150 144 -27 535 -38 713 -19 140
14 297 51 364 84 81 41 97 69 110 188 7 57 17 136 22 176 6 40 10 89 8 110 -1
20 2 44 5 54 4 9 6 29 3 45 -4 25 -4 25 -6 -7 -1 -27 -4 -31 -11 -20 -17 26
-12 68 8 66 12 -1 18 8 20 28 l4 28 -23 -21 c-13 -12 -26 -21 -31 -21 -4 0 -8
-8 -9 -17 0 -10 -5 -3 -10 16 -11 36 -4 55 11 31 7 -12 10 -11 16 4 5 14 9 15
15 4 7 -10 9 -9 9 3 0 9 7 22 16 30 10 8 15 27 13 53 -1 23 2 49 6 59 4 10 5
21 1 24 -3 4 -6 1 -6 -5 0 -7 -4 -12 -10 -12 -17 0 -11 35 10 53 13 11 20 29
20 54 0 21 3 48 6 61 7 25 -7 29 -29 7 -13 -13 -16 -13 -21 2 -7 17 9 33 32
33 13 0 36 49 28 58 -3 2 -12 -3 -21 -12 -9 -9 -22 -13 -28 -9 -6 4 -8 0 -4
-10 3 -10 2 -17 -3 -17 -15 0 -12 40 5 56 10 11 15 11 15 3 0 -6 9 -1 19 13
11 14 20 40 19 59 0 19 3 48 7 64 5 23 4 26 -4 15 -10 -13 -11 -13 -11 0 1 8
7 24 15 34 20 26 20 60 0 52 -23 -8 -19 27 5 42 13 8 20 23 20 41 0 32 -15 50
-23 29 -4 -8 -6 -7 -6 4 -1 9 4 20 9 23 6 3 10 11 10 16 0 6 -4 7 -10 4 -5 -3
-10 1 -10 9 0 9 -5 15 -11 14 -21 -5 -20 19 1 25 15 4 20 0 20 -15 0 -18 1
-18 17 -3 13 14 14 21 4 36 -6 11 -9 25 -5 30 4 8 9 7 15 -2 7 -11 9 -11 9 1
0 8 -9 21 -20 28 -11 7 -20 21 -20 33 0 13 -4 18 -12 13 -7 -4 -8 -3 -4 5 4 6
9 62 11 124 4 119 23 220 23 122 0 -27 -3 -72 -6 -100 -6 -38 -4 -53 8 -63 8
-8 9 -11 3 -7 -8 4 -13 -1 -13 -12 0 -10 -3 -28 -6 -40 -4 -14 -2 -23 5 -23 6
0 11 9 11 19 0 11 5 23 11 27 6 3 8 17 5 29 -6 23 9 46 16 26 1 -6 4 34 5 87
3 111 15 150 50 158 25 7 48 38 38 54 -7 11 -9 11 -50 -1z m-108 -141 c-3 -8
-6 -5 -6 6 -1 11 2 17 5 13 3 -3 4 -12 1 -19z m-1677 -184 c0 -8 -4 -12 -10
-9 -5 3 -10 13 -10 21 0 8 5 12 10 9 6 -3 10 -13 10 -21z m-18 -39 c3 -14 2
-28 -2 -30 -4 -3 -10 11 -12 29 -4 39 7 40 14 1z m88 -96 c0 -10 -4 -20 -9
-24 -15 -9 -33 33 -25 57 6 21 7 21 20 3 8 -10 14 -27 14 -36z m-60 14 c0 -22
-2 -25 -10 -13 -13 20 -13 40 0 40 6 0 10 -12 10 -27z m1670 1 c0 -8 -4 -12
-10 -9 -5 3 -10 10 -10 16 0 5 5 9 10 9 6 0 10 -7 10 -16z m-1637 -86 c-11
-20 -23 -4 -22 30 l1 37 13 -30 c7 -16 11 -33 8 -37z m-53 -61 c0 -10 -4 -15
-10 -12 -5 3 -10 18 -10 33 0 21 2 24 10 12 5 -8 10 -23 10 -33z m29 10 c0
-21 -1 -21 -9 -2 -12 28 -12 37 0 30 6 -3 10 -16 9 -28z m1651 -59 c0 -32 -3
-39 -10 -28 -8 12 -10 12 -11 -5 0 -14 -3 -11 -10 9 -4 17 -6 32 -4 35 3 2 5
-1 5 -7 0 -7 5 -12 10 -12 6 0 9 3 9 8 -3 15 1 42 6 42 3 0 5 -19 5 -42z
m-1663 -20 c-3 -7 -5 -2 -5 12 0 14 2 19 5 13 2 -7 2 -19 0 -25z m20 -65 c-3
-10 -5 -2 -5 17 0 19 2 27 5 18 2 -10 2 -26 0 -35z m1633 -36 c0 -18 -2 -19
-10 -7 -13 20 -13 43 0 35 6 -3 10 -16 10 -28z m0 -57 c0 -11 -2 -20 -4 -20
-2 0 -6 9 -9 20 -3 11 -1 20 4 20 5 0 9 -9 9 -20z m-1610 -53 c0 -10 -4 -15
-10 -12 -5 3 -10 18 -10 33 0 21 2 24 10 12 5 -8 10 -23 10 -33z m1609 -14 c0
-21 -3 -32 -6 -24 -5 11 -7 11 -14 0 -6 -10 -9 -6 -9 14 0 16 4 26 10 22 6 -3
10 1 10 9 0 9 2 16 5 16 3 0 5 -17 4 -37z m-49 10 c0 -22 -17 -50 -25 -42 -6
7 11 59 20 59 3 0 5 -8 5 -17z m-1570 -56 c0 -5 -4 -5 -10 -2 -5 3 -10 14 -10
23 0 15 2 15 10 2 5 -8 10 -19 10 -23z m1567 -29 c-3 -7 -5 -2 -5 12 0 14 2
19 5 13 2 -7 2 -19 0 -25z m-1537 -49 c0 -6 -4 -7 -10 -4 -5 3 -10 11 -10 16
0 6 5 7 10 4 6 -3 10 -11 10 -16z m1526 -25 c-8 -21 -11 -17 -20 21 -7 28 -6
29 10 13 10 -10 14 -23 10 -34z m-1546 -39 c0 -5 -5 -3 -10 5 -5 8 -10 20 -10
25 0 6 5 3 10 -5 5 -8 10 -19 10 -25z m1547 -17 c-3 -8 -6 -5 -6 6 -1 11 2 17
5 13 3 -3 4 -12 1 -19z m-1517 -48 c4 -27 0 -41 -9 -35 -5 3 -9 19 -9 36 1 29
14 29 18 -1z m1566 -26 c-8 -20 -26 -8 -26 17 0 11 5 17 10 14 6 -3 11 0 11 7
1 7 3 5 6 -5 3 -10 2 -25 -1 -33z m-85 -7 c-10 -9 -11 -8 -5 6 3 10 9 15 12
12 3 -3 0 -11 -7 -18z m16 -39 c-3 -8 -6 -5 -6 6 -1 11 2 17 5 13 3 -3 4 -12
1 -19z m30 0 c-3 -8 -6 -5 -6 6 -1 11 2 17 5 13 3 -3 4 -12 1 -19z m-1547 -25
c-11 -17 -11 -17 -6 0 3 10 6 24 7 30 0 9 2 9 5 0 3 -7 0 -20 -6 -30z m-35
-13 c3 -5 1 -10 -4 -10 -6 0 -11 5 -11 10 0 6 2 10 4 10 3 0 8 -4 11 -10z m55
-37 c-11 -17 -11 -17 -6 0 3 10 6 24 7 30 0 9 2 9 5 0 3 -7 0 -20 -6 -30z
m1546 -11 c-4 -3 -11 0 -16 8 -15 24 -11 33 6 15 9 -9 13 -19 10 -23z m-91
-28 c-14 -26 -15 -27 -15 -6 0 27 24 69 28 49 1 -7 -4 -26 -13 -43z m82 -6
c-3 -8 -6 -5 -6 6 -1 11 2 17 5 13 3 -3 4 -12 1 -19z m-1550 -30 c-3 -8 -6 -5
-6 6 -1 11 2 17 5 13 3 -3 4 -12 1 -19z m1467 -77 c-4 -21 -10 -28 -14 -20 -5
7 -3 23 3 36 14 31 19 24 11 -16z m-1407 -13 c-3 -8 -6 -5 -6 6 -1 11 2 17 5
13 3 -3 4 -12 1 -19z m-47 -59 c0 -11 -4 -17 -10 -14 -5 3 -10 15 -10 26 0 11
5 17 10 14 6 -3 10 -15 10 -26z m40 -24 c0 -5 -5 -3 -10 5 -5 8 -10 20 -10 25
0 6 5 3 10 -5 5 -8 10 -19 10 -25z m1460 19 c0 -8 -5 -12 -10 -9 -6 4 -8 11
-5 16 9 14 15 11 15 -7z m-1489 -49 c5 4 9 -6 9 -22 -1 -24 -2 -26 -11 -10 -6
9 -14 15 -20 12 -5 -4 -9 6 -9 22 1 24 2 26 11 10 6 -9 14 -15 20 -12z m54
-32 c4 -14 2 -23 -4 -23 -6 0 -11 3 -11 8 0 4 -3 18 -6 32 -8 31 11 16 21 -17z
m1455 1 c0 -8 -4 -14 -10 -14 -5 0 -10 9 -10 21 0 11 5 17 10 14 6 -3 10 -13
10 -21z m-33 -41 c-3 -10 -5 -2 -5 17 0 19 2 27 5 18 2 -10 2 -26 0 -35z m-27
0 c-1 -24 -2 -26 -11 -10 -5 9 -7 22 -4 27 10 17 15 11 15 -17z m-1410 -31 c0
-7 -4 -10 -10 -7 -5 3 -10 16 -10 28 0 18 2 19 10 7 5 -8 10 -21 10 -28z m48
-6 c2 -15 12 -36 23 -47 16 -16 17 -23 8 -41 -9 -16 -13 -18 -20 -7 -5 8 -9
24 -9 35 0 12 -7 27 -15 34 -18 15 -20 63 -2 58 6 -3 13 -17 15 -32z m-23 -63
c3 -13 2 -23 -3 -23 -11 0 -22 24 -22 48 0 21 15 5 25 -25z m1363 5 c1 -23 -2
-28 -8 -18 -12 19 -13 50 -2 50 5 0 9 -14 10 -32z m42 1 c0 -5 -4 -9 -10 -9
-5 0 -10 7 -10 16 0 8 5 12 10 9 6 -3 10 -10 10 -16z m-1422 -77 c-3 -14 -6
-14 -16 6 -7 12 -10 27 -6 33 9 15 27 -16 22 -39z m1356 21 c-9 -36 -12 -39
-20 -19 -7 20 1 46 16 46 6 0 8 -11 4 -27z m-1307 -30 c-3 -15 1 -23 9 -23 8
0 16 -12 19 -27 4 -16 13 -40 21 -55 8 -14 14 -33 14 -42 0 -26 -19 -18 -31
12 -6 15 -15 35 -20 44 -16 31 -39 102 -39 122 0 16 2 16 16 5 9 -7 14 -22 11
-36z m57 19 c10 -20 11 -33 4 -46 -9 -16 -8 -18 6 -13 24 9 44 -36 26 -58 -15
-18 -40 -3 -40 23 0 9 -9 35 -21 59 -19 40 -19 63 1 63 5 0 16 -13 24 -28z
m1324 -2 c-14 -22 -24 -19 -15 5 4 8 11 15 17 15 6 0 6 -7 -2 -20z m-58 -45
c0 -14 -4 -25 -10 -25 -11 0 -14 33 -3 43 11 11 13 8 13 -18z m-1343 -28 c-6
-19 -22 -6 -25 20 -2 27 -2 27 13 8 8 -10 14 -23 12 -28z m1314 -22 c5 4 9 1
9 -4 0 -14 -11 -13 -32 2 -18 14 -19 47 -3 59 6 5 11 -6 13 -27 2 -20 7 -33
13 -30z m-60 16 c-11 -19 -8 -25 12 -22 4 0 7 -6 7 -14 0 -14 -3 -13 -25 2
-33 24 -39 43 -18 59 24 17 38 2 24 -25z m-1233 -62 l-3 -24 -13 23 c-7 12
-10 27 -6 33 10 17 26 -6 22 -32z m797 -99 c-3 -5 -11 -10 -16 -10 -6 0 -7 5
-4 10 3 6 11 10 16 10 6 0 7 -4 4 -10z"/>
<path d="M50 2177 c0 -27 26 -36 111 -42 46 -3 78 -2 72 1 -22 10 -14 24 15
25 33 2 -34 13 -130 23 -55 5 -68 4 -68 -7z"/>
<path d="M1078 2023 c6 -2 18 -2 25 0 6 3 1 5 -13 5 -14 0 -19 -2 -12 -5z"/>
<path d="M1085 2000 c3 -5 8 -10 11 -10 2 0 4 5 4 10 0 6 -5 10 -11 10 -5 0
-7 -4 -4 -10z"/>
<path d="M960 1953 c0 -13 8 -23 22 -26 29 -8 29 -6 2 23 -23 24 -24 24 -24 3z"/>
<path d="M1010 1895 c0 -8 4 -15 10 -15 5 0 7 7 4 15 -4 8 -8 15 -10 15 -2 0
-4 -7 -4 -15z"/>
<path d="M1871 1813 c-10 -26 -10 -27 4 -9 8 11 15 23 15 28 0 15 -7 8 -19
-19z"/>
<path d="M419 1813 c-13 -16 -12 -17 4 -4 9 7 17 15 17 17 0 8 -8 3 -21 -13z"/>
<path d="M679 1803 c-13 -16 -12 -17 4 -4 9 7 17 15 17 17 0 8 -8 3 -21 -13z"/>
<path d="M1957 1797 c-11 -29 -9 -43 4 -30 6 6 9 19 7 29 -3 18 -4 18 -11 1z"/>
<path d="M1846 1765 c-3 -8 -1 -15 4 -15 6 0 10 7 10 15 0 8 -2 15 -4 15 -2 0
-6 -7 -10 -15z"/>
<path d="M1836 1644 c-4 -9 -4 -19 -1 -22 2 -3 7 3 11 12 4 9 4 19 1 22 -2 3
-7 -3 -11 -12z"/>
<path d="M1951 1614 c0 -11 3 -14 6 -6 3 7 2 16 -1 19 -3 4 -6 -2 -5 -13z"/>
<path d="M1801 1564 c0 -11 3 -14 6 -6 3 7 2 16 -1 19 -3 4 -6 -2 -5 -13z"/>
<path d="M1806 1475 c-3 -8 -1 -15 3 -15 5 0 11 7 15 15 3 8 1 15 -3 15 -5 0
-11 -7 -15 -15z"/>
<path d="M1803 1373 c-3 -10 -8 -21 -10 -25 -2 -4 2 -5 9 -3 8 3 14 14 15 25
2 25 -6 26 -14 3z"/>
<path d="M1781 1225 c-1 -12 -5 -25 -9 -30 -11 -14 -33 -65 -27 -65 10 0 47
90 42 102 -3 7 -6 4 -6 -7z"/>
<path d="M1762 1100 c3 -8 1 -23 -4 -32 -5 -11 -5 -18 0 -18 15 0 23 43 10 55
-7 7 -9 5 -6 -5z"/>
<path d="M380 1028 c0 -9 7 -22 17 -29 15 -13 15 -12 3 11 -17 34 -20 36 -20
18z"/>
<path d="M407 889 c4 -13 8 -18 11 -10 2 7 -1 18 -6 23 -8 8 -9 4 -5 -13z"/>
<path d="M381 872 c-1 -7 -5 -10 -11 -7 -12 7 -2 -22 17 -50 13 -19 13 -19 12
0 -1 26 -17 74 -18 57z"/>
<path d="M1711 854 c0 -11 3 -14 6 -6 3 7 2 16 -1 19 -3 4 -6 -2 -5 -13z"/>
<path d="M400 785 c0 -13 24 -55 32 -55 5 0 2 14 -7 30 -14 27 -25 38 -25 25z"/>
<path d="M645 730 c-3 -5 -1 -10 4 -10 6 0 11 5 11 10 0 6 -2 10 -4 10 -3 0
-8 -4 -11 -10z"/>
<path d="M451 684 c0 -11 3 -14 6 -6 3 7 2 16 -1 19 -3 4 -6 -2 -5 -13z"/>
<path d="M1714 654 c-4 -10 -9 -22 -11 -26 -2 -5 0 -8 6 -8 11 0 26 39 17 47
-3 3 -9 -3 -12 -13z"/>
<path d="M808 617 c18 -18 32 -38 32 -43 0 -6 12 -21 28 -35 l27 -24 -22 26
c-13 14 -23 29 -23 35 -1 11 -57 74 -67 74 -4 0 7 -15 25 -33z"/>
<path d="M1020 606 c0 -2 8 -10 18 -17 15 -13 16 -12 3 4 -13 16 -21 21 -21
13z"/>
<path d="M1692 598 c-15 -15 -16 -38 -1 -38 6 0 9 7 5 15 -3 8 2 19 12 24 9 6
12 11 7 11 -6 0 -16 -5 -23 -12z"/>
<path d="M930 591 c0 -5 5 -13 10 -16 6 -3 10 -2 10 4 0 5 -4 13 -10 16 -5 3
-10 2 -10 -4z"/>
<path d="M1085 530 c10 -11 20 -20 23 -20 3 0 -3 9 -13 20 -10 11 -20 20 -23
20 -3 0 3 -9 13 -20z"/>
<path d="M790 507 c0 -2 15 -16 33 -33 l32 -29 -29 33 c-28 30 -36 37 -36 29z"/>
<path d="M1330 492 c0 -12 19 -26 26 -19 2 2 -2 10 -11 17 -9 8 -15 8 -15 2z"/>
<path d="M720 486 c0 -2 8 -10 18 -17 15 -13 16 -12 3 4 -13 16 -21 21 -21 13z"/>
<path d="M1132 470 c7 -11 18 -20 25 -20 19 0 16 6 -12 24 -25 17 -25 16 -13
-4z"/>
<path d="M1236 476 c3 -9 13 -16 22 -16 8 0 13 1 11 3 -2 1 -12 9 -22 16 -15
12 -17 12 -11 -3z"/>
<path d="M930 455 c6 -8 8 -20 4 -26 -4 -7 -3 -9 4 -6 5 4 21 -6 35 -22 14
-17 27 -27 30 -24 3 3 -8 17 -24 30 -17 14 -28 31 -25 39 3 7 -2 15 -10 18
-24 9 -27 7 -14 -9z"/>
<path d="M1032 458 c5 -15 28 -23 28 -10 0 5 -7 13 -16 16 -10 4 -14 1 -12 -6z"/>
<path d="M1621 444 c0 -11 3 -14 6 -6 3 7 2 16 -1 19 -3 4 -6 -2 -5 -13z"/>
<path d="M1676 451 c-4 -7 -5 -15 -2 -18 9 -9 19 4 14 18 -4 11 -6 11 -12 0z"/>
<path d="M865 408 c55 -68 75 -96 75 -105 0 -12 47 -53 60 -53 6 0 -4 13 -22
29 l-33 29 25 29 c21 24 22 25 2 9 -22 -19 -22 -19 -47 4 -14 13 -25 28 -26
34 0 6 -14 22 -32 36 l-32 25 30 -37z"/>
<path d="M776 408 c10 -14 21 -24 23 -22 3 3 -6 15 -18 27 l-24 22 19 -27z"/>
<path d="M1280 415 c7 -8 20 -15 29 -15 13 1 13 3 -3 15 -26 19 -42 19 -26 0z"/>
<path d="M1385 420 c3 -5 11 -10 16 -10 6 0 7 5 4 10 -3 6 -11 10 -16 10 -6 0
-7 -4 -4 -10z"/>
<path d="M1080 400 c11 -11 23 -20 27 -20 3 0 -2 9 -12 20 -10 11 -22 20 -27
20 -4 0 1 -9 12 -20z"/>
<path d="M1180 411 c0 -13 28 -33 33 -23 3 4 -3 13 -14 20 -10 7 -19 8 -19 3z"/>
<path d="M1606 403 c-6 -14 -5 -15 5 -6 7 7 10 15 7 18 -3 3 -9 -2 -12 -12z"/>
<path d="M610 404 c1 -10 50 -73 50 -63 0 3 -11 20 -25 39 -14 19 -25 30 -25
24z"/>
<path d="M1492 374 c-7 -8 -10 -19 -6 -26 5 -7 10 -3 16 12 10 28 7 33 -10 14z"/>
<path d="M720 356 c15 -17 20 -31 16 -43 -4 -9 -4 -14 0 -10 4 4 21 -5 37 -20
l30 -28 -28 38 -29 39 25 20 24 20 -27 -16 c-26 -15 -28 -15 -38 4 -6 11 -16
20 -22 20 -6 0 -1 -11 12 -24z"/>
<path d="M567 341 c-4 -17 -3 -21 5 -13 5 5 8 16 6 23 -3 8 -7 3 -11 -10z"/>
<path d="M1019 342 c6 -12 16 -24 22 -27 7 -5 4 -14 -8 -28 -17 -21 -17 -22 1
-5 18 16 20 15 38 -8 11 -13 24 -24 31 -24 6 0 -1 13 -16 28 -15 15 -27 32
-27 38 0 5 -12 17 -26 28 -26 18 -26 18 -15 -2z"/>
<path d="M1129 343 c6 -13 19 -23 28 -23 9 0 14 1 12 3 -2 1 -15 11 -28 22
l-24 20 12 -22z"/>
<path d="M1230 352 c0 -5 6 -15 14 -21 10 -9 17 -7 27 6 10 12 11 15 1 9 -7
-4 -19 -2 -27 4 -9 7 -15 8 -15 2z"/>
<path d="M1340 345 c7 -8 17 -12 22 -9 6 4 5 10 -3 15 -22 14 -33 10 -19 -6z"/>
<path d="M1437 334 c-4 -4 3 -15 14 -25 19 -17 19 -18 2 -28 -15 -9 -16 -10
-2 -11 9 0 24 12 34 26 9 15 12 23 5 19 -6 -4 -19 0 -29 9 -10 9 -21 13 -24
10z"/>
<path d="M674 299 c21 -25 24 -34 15 -51 -8 -15 -8 -19 1 -13 6 4 22 -3 36
-16 13 -12 24 -18 24 -12 0 5 -9 18 -20 28 -11 10 -20 23 -20 29 -1 12 -46 66
-55 66 -4 0 5 -14 19 -31z"/>
<path d="M1376 294 c-7 -18 27 -19 42 -1 8 9 4 12 -13 13 -13 1 -26 -4 -29
-12z"/>
<path d="M1285 280 c10 -11 22 -17 27 -14 5 3 1 12 -9 20 -27 20 -39 17 -18
-6z"/>
<path d="M604 265 c-9 -19 -9 -22 2 -18 19 7 44 -15 44 -38 0 -10 11 -30 25
-45 14 -15 25 -25 25 -23 0 9 -36 75 -61 110 -24 37 -25 37 -35 14z"/>
<path d="M1184 275 c8 -8 20 -15 27 -15 7 0 4 6 -7 15 -25 19 -40 19 -20 0z"/>
<path d="M760 160 c12 -16 26 -30 31 -30 5 0 0 14 -13 30 -12 17 -26 30 -31
30 -4 0 1 -13 13 -30z"/>
<path d="M1098 183 c6 -2 18 -2 25 0 6 3 1 5 -13 5 -14 0 -19 -2 -12 -5z"/>
</g>
</svg>
